<?xml version="1.0" standalone="no"?>
<!DOCTYPE svg PUBLIC "-//W3C//DTD SVG 20010904//EN"
 "http://www.w3.org/TR/2001/REC-SVG-20010904/DTD/svg10.dtd">
<svg version="1.0" xmlns="http://www.w3.org/2000/svg"
 width="576.000000pt" height="576.000000pt" viewBox="0 0 576.000000 576.000000"
 preserveAspectRatio="xMidYMid meet">
<metadata>
Created by potrace 1.11, written by Peter Selinger 2001-2013
</metadata>
<g transform="translate(0.000000,576.000000) scale(0.100000,-0.100000)"
fill="#000000" stroke="none">
<path d="M2119 5296 c-2 -2 -23 -6 -46 -9 -46 -7 -151 -40 -198 -64 -95 -48
-213 -147 -283 -238 -45 -58 -114 -210 -128 -280 -2 -11 -7 -33 -11 -50 -10
-44 -11 -1435 -1 -1466 30 -91 161 -104 215 -22 17 25 18 78 19 732 0 646 2
711 18 766 49 163 154 284 305 351 71 32 90 35 197 39 78 3 103 -1 170 -23
214 -73 356 -259 368 -483 7 -117 94 -174 183 -119 39 24 59 68 62 137 1 29
10 80 21 115 70 224 257 366 488 373 249 8 455 -145 528 -390 16 -55 18 -120
19 -767 0 -700 0 -707 21 -735 41 -55 104 -68 162 -33 18 11 39 33 45 49 10
22 12 203 12 743 -1 706 -2 714 -24 798 -77 290 -322 520 -604 568 -79 13
-268 7 -337 -12 -153 -41 -314 -147 -407 -267 l-47 -60 -25 33 c-116 150 -260
248 -432 294 -56 15 -279 30 -290 20z"/>
<path d="M1112 4289 c-251 -31 -479 -194 -591 -423 -61 -124 -75 -190 -75
-341 0 -152 15 -219 75 -341 108 -220 323 -379 569 -420 25 -4 360 -8 745 -9
574 -1 705 1 728 12 35 17 67 69 67 108 0 37 -31 89 -62 106 -18 10 -179 13
-728 14 -644 1 -710 3 -765 19 -179 53 -312 180 -371 356 -29 86 -25 245 8
331 35 89 71 144 133 204 88 85 210 139 342 149 33 2 71 9 83 16 29 16 60 69
60 105 0 36 -31 89 -60 105 -29 15 -82 18 -158 9z"/>
<path d="M1869 4283 c-77 -47 -79 -154 -3 -204 28 -18 57 -19 992 -19 1057 0
1008 -3 1045 59 33 57 14 131 -43 165 -26 14 -118 16 -997 16 -877 -1 -970 -2
-994 -17z"/>
<path d="M4493 4288 c-99 -26 -109 -181 -13 -221 21 -10 120 -12 372 -11 189
1 350 2 360 3 25 2 72 57 80 93 10 47 -23 112 -65 129 -24 10 -112 14 -368 14
-185 0 -350 -3 -366 -7z"/>
<path d="M2803 3921 c-17 -11 -37 -30 -44 -43 -11 -18 -13 -225 -14 -983 -1
-528 3 -974 7 -991 12 -45 50 -76 100 -81 50 -4 82 10 112 50 21 28 21 30 22
990 0 529 -3 976 -8 993 -19 71 -110 106 -175 65z"/>
<path d="M3170 2979 c-29 -13 -41 -27 -54 -61 -16 -42 -16 -47 0 -87 31 -79
-12 -75 789 -77 497 -1 718 -4 738 -12 15 -6 27 -10 27 -7 0 8 114 -47 154
-74 171 -118 258 -331 220 -533 -25 -130 -98 -248 -204 -326 -88 -66 -171 -95
-311 -107 -82 -7 -136 -70 -121 -143 8 -39 56 -91 85 -94 272 -19 558 137 700
382 149 257 131 599 -44 836 -116 157 -289 267 -489 310 -19 4 -354 8 -744 8
-641 1 -713 0 -746 -15z"/>
<path d="M1503 2609 c-17 -11 -36 -34 -42 -51 -8 -21 -11 -341 -11 -1036 l0
-1006 23 -33 c35 -52 104 -68 158 -36 62 37 59 -16 59 1083 0 1099 3 1046 -59
1083 -39 23 -89 21 -128 -4z"/>
<path d="M4109 2613 c-63 -39 -59 28 -59 -1083 0 -919 2 -1014 16 -1040 47
-79 161 -79 208 0 14 26 16 121 16 1040 0 919 -2 1014 -16 1040 -34 56 -111
77 -165 43z"/>
<path d="M523 1686 c-83 -28 -102 -139 -35 -201 15 -14 34 -26 42 -26 8 -1
170 -2 359 -3 316 -1 348 0 382 17 34 17 59 54 66 96 3 26 -28 86 -55 106 -25
18 -45 19 -379 20 -193 0 -364 -4 -380 -9z"/>
<path d="M1870 1679 c-78 -35 -85 -151 -12 -204 26 -19 45 -20 992 -20 572 -1
981 3 1003 8 90 22 108 160 29 214 -25 16 -85 17 -1001 18 -880 0 -978 -1
-1011 -16z"/>
<path d="M2811 1317 c-13 -6 -34 -25 -45 -40 -20 -28 -21 -38 -21 -395 l1
-367 23 -32 c22 -29 39 -37 95 -49 11 -2 36 6 57 18 64 36 66 47 65 445 -1
341 -2 352 -22 380 -26 35 -60 53 -99 53 -16 0 -41 -6 -54 -13z"/>
</g>
</svg>
