<svg xmlns="http://www.w3.org/2000/svg" viewBox="0 0 1064 1064"><defs><style>.cls-3{fill:none}.cls-2{fill:#3f154f}.cls-3{stroke:#b3b3b3;stroke-linecap:round;stroke-linejoin:round;stroke-width:20px}.cls-4{fill:#e4002b}</style><pattern id="ms-logo-pattern-1_2" data-name="ms-logo-pattern-1 2" width="1061" height="1060" patternUnits="userSpaceOnUse"><path fill="none" d="M0 0h1061v1060H0z"/><path class="cls-2" d="M435.4 403.56a10.39 10.39 0 0 1 0-20.77 57.11 57.11 0 0 0 0-114.22h-135a10.39 10.39 0 1 1 0-20.77h135a77.88 77.88 0 0 1 0 155.76zM226.16 268.57h-135a77.89 77.89 0 0 1 0-155.77 10.39 10.39 0 1 1 0 20.77 57.12 57.12 0 0 0 0 114.23h135a10.39 10.39 0 0 1 0 20.77z"/><path class="cls-4" d="M330.52 8.44A77.93 77.93 0 0 0 263 47.54a77.86 77.86 0 0 0-145.36 38.78v135a10.39 10.39 0 0 0 20.77 0v-135a57.12 57.12 0 0 1 114.23 0 10.39 10.39 0 1 0 20.77 0 57.11 57.11 0 0 1 114.22 0v135a10.39 10.39 0 0 0 20.77 0v-135a78 78 0 0 0-77.88-77.88z"/><path class="cls-4" d="M263 365.66a10.39 10.39 0 0 1-10.38-10.39V162.13a10.39 10.39 0 1 1 20.77 0v193.14A10.39 10.39 0 0 1 263 365.66z"/><path class="cls-2" d="M621.68 133.57H435.92a10.39 10.39 0 0 1 0-20.77h185.76a10.39 10.39 0 1 1 0 20.77zM362.19 133.05H165.93a10.39 10.39 0 0 1 0-20.77h196.26a10.39 10.39 0 1 1 0 20.77zM361.67 403.56H165.41a10.39 10.39 0 0 1 0-20.77h196.26a10.39 10.39 0 1 1 0 20.77zM965.73 933.88a10.38 10.38 0 1 1 0-20.76 57.12 57.12 0 0 0 0-114.23h-135a10.39 10.39 0 0 1 0-20.77h135a77.88 77.88 0 0 1 0 155.76zM756.48 798.89h-135a77.88 77.88 0 0 1 0-155.76 10.38 10.38 0 0 1 0 20.76 57.12 57.12 0 0 0 0 114.23h135a10.39 10.39 0 1 1 0 20.77z"/><path class="cls-4" d="M860.85 538.77a77.88 77.88 0 0 0-67.5 39.1A77.86 77.86 0 0 0 648 616.65v135a10.39 10.39 0 1 0 20.77 0v-135a57.11 57.11 0 1 1 114.22 0 10.39 10.39 0 0 0 20.77 0 57.12 57.12 0 1 1 114.23 0v135a10.39 10.39 0 1 0 20.77 0v-135a78 78 0 0 0-77.91-77.88z"/><path class="cls-4" d="M793.35 896A10.39 10.39 0 0 1 783 885.6V692.45a10.39 10.39 0 0 1 20.77 0V885.6a10.38 10.38 0 0 1-10.42 10.4zM928.86 1082.56a10.38 10.38 0 0 1-10.38-10.38V826.41a10.39 10.39 0 1 1 20.77 0v245.77a10.39 10.39 0 0 1-10.39 10.38zM793.35 1082.56a10.39 10.39 0 0 1-10.35-10.38V961.4a10.39 10.39 0 0 1 20.77 0v110.78a10.38 10.38 0 0 1-10.42 10.38zM658.87 1082.56a10.38 10.38 0 0 1-10.38-10.38V826.41a10.39 10.39 0 1 1 20.77 0v245.77a10.39 10.39 0 0 1-10.39 10.38z"/><path class="cls-2" d="M892.52 663.38H696.26a10.39 10.39 0 1 1 0-20.77h196.26a10.39 10.39 0 0 1 0 20.77zM892 933.88H695.74a10.38 10.38 0 1 1 0-20.76H892a10.38 10.38 0 0 1 0 20.76zM965.4 113.32a10.39 10.39 0 0 0 0 20.77 57.12 57.12 0 0 1 0 114.23h-135a10.38 10.38 0 1 0 0 20.76h135a77.88 77.88 0 0 0 0-155.76zM756.16 248.32h-135a77.88 77.88 0 0 0 0 155.76 10.39 10.39 0 1 0 0-20.77 57.12 57.12 0 0 1 0-114.23h135a10.38 10.38 0 0 0 0-20.76z"/><path class="cls-4" d="M928 285.18a10.39 10.39 0 0 0-10.39 10.38v135a57.11 57.11 0 0 1-114.22 0 10.39 10.39 0 1 0-20.77 0 57.12 57.12 0 0 1-114.23 0v-135a10.39 10.39 0 0 0-20.77 0v135A77.86 77.86 0 0 0 793 469.34a77.86 77.86 0 0 0 145.4-38.78v-135a10.38 10.38 0 0 0-10.4-10.38z"/><path class="cls-4" d="M793 151.22a10.39 10.39 0 0 0-10.38 10.39v193.14a10.39 10.39 0 1 0 20.77 0V161.61A10.39 10.39 0 0 0 793 151.22zM928.54 8.44a10.39 10.39 0 0 0-10.39 10.38v202a10.39 10.39 0 0 0 20.77 0v-202a10.38 10.38 0 0 0-10.38-10.38zM793 8.44a10.38 10.38 0 0 0-10.38 10.38v67a10.39 10.39 0 1 0 20.77 0v-67A10.39 10.39 0 0 0 793 8.44zM658.55 8.44a10.39 10.39 0 0 0-10.39 10.38v202a10.39 10.39 0 0 0 20.77 0v-202a10.38 10.38 0 0 0-10.38-10.38z"/><path class="cls-2" d="M892.19 383.83H695.93a10.39 10.39 0 0 0 0 20.77h196.26a10.39 10.39 0 1 0 0-20.77zM891.67 113.32H695.41a10.39 10.39 0 0 0 0 20.77h196.26a10.39 10.39 0 1 0 0-20.77zM435.27 643.45a10.39 10.39 0 0 0 0 20.77 57.12 57.12 0 0 1 0 114.23h-135a10.38 10.38 0 1 0 0 20.76h135a77.88 77.88 0 1 0 0-155.76zM226 778.45H91a77.88 77.88 0 0 0 0 155.76 10.39 10.39 0 1 0 0-20.77 57.12 57.12 0 0 1 0-114.23h135a10.38 10.38 0 1 0 0-20.76z"/><path class="cls-4" d="M397.89 815.31a10.39 10.39 0 0 0-10.39 10.38v135a57.11 57.11 0 0 1-114.22 0 10.39 10.39 0 1 0-20.77 0 57.12 57.12 0 0 1-114.23 0v-135a10.39 10.39 0 0 0-20.77 0v135a77.86 77.86 0 0 0 145.38 38.78 77.86 77.86 0 0 0 145.38-38.78v-135a10.38 10.38 0 0 0-10.38-10.38z"/><path class="cls-4" d="M262.89 681.35a10.39 10.39 0 0 0-10.38 10.39v193.14a10.39 10.39 0 1 0 20.77 0V691.74a10.39 10.39 0 0 0-10.39-10.39zM408.92 296.08a10.39 10.39 0 0 0-20.77 0v195a11.45 11.45 0 0 0-.13 1.56v258.29a10.39 10.39 0 0 0 20.77 0V499.62a10.05 10.05 0 0 0 .13-1.56zM263 420.69a10.39 10.39 0 0 0-10.38 10.39v60a10.05 10.05 0 0 0-.13 1.56v123.29a10.39 10.39 0 1 0 20.77 0V499.62a11.45 11.45 0 0 0 .13-1.56v-67A10.39 10.39 0 0 0 263 420.69zM128.55 285.7a10.39 10.39 0 0 0-10.39 10.38v195a11.45 11.45 0 0 0-.13 1.56v258.29a10.39 10.39 0 0 0 20.77 0V499.62a10.05 10.05 0 0 0 .13-1.56v-202a10.38 10.38 0 0 0-10.38-10.36z"/><path class="cls-2" d="M622 913.44H435.79a10.39 10.39 0 0 0 0 20.77H622a10.39 10.39 0 0 0 0-20.77zM1152.46 643.13H966.24a10.38 10.38 0 0 0 0 20.76h186.22a10.38 10.38 0 1 0 0-20.76zM1152.46 383.83H966.24a10.39 10.39 0 0 0 0 20.77h186.22a10.39 10.39 0 1 0 0-20.77zM362.06 914H165.8a10.39 10.39 0 0 0 0 20.77h196.26a10.39 10.39 0 1 0 0-20.77zM361.54 643.45H165.28a10.39 10.39 0 0 0 0 20.77h196.26a10.39 10.39 0 1 0 0-20.77zM91.46 643.13H-94.76a10.38 10.38 0 0 0-10.38 10.38 10.38 10.38 0 0 0 10.38 10.38H91.46a10.38 10.38 0 1 0 0-20.76zM91.46 383.83H-94.76a10.38 10.38 0 0 0-10.38 10.38 10.39 10.39 0 0 0 10.38 10.39H91.46a10.39 10.39 0 1 0 0-20.77z"/><path class="cls-4" d="M928.86 22.56a10.38 10.38 0 0 1-10.38-10.38v-245.77A10.39 10.39 0 0 1 928.86-244a10.39 10.39 0 0 1 10.39 10.39V12.18a10.39 10.39 0 0 1-10.39 10.38zM793.35 22.56A10.39 10.39 0 0 1 783 12.18V-98.6a10.39 10.39 0 0 1 10.35-10.4 10.38 10.38 0 0 1 10.38 10.4V12.18a10.38 10.38 0 0 1-10.38 10.38zM658.87 22.56a10.38 10.38 0 0 1-10.38-10.38v-245.77A10.39 10.39 0 0 1 658.87-244a10.39 10.39 0 0 1 10.39 10.39V12.18a10.39 10.39 0 0 1-10.39 10.38z"/></pattern></defs><title>Mike Sonnenberg Logo Pattern</title><path fill="url(#ms-logo-pattern-1_2)" d="M-1145.5-1074h10000V8926h-10000z" id="Layer_9" data-name="Layer 9"/></svg>