<svg xmlns="http://www.w3.org/2000/svg" xmlns:xlink="http://www.w3.org/1999/xlink" viewBox="0 0 1064 1064"><defs><style>.cls-1,.cls-3{fill:none;}.cls-2{fill:#3f154f;}.cls-3{stroke:#b3b3b3;stroke-linecap:round;stroke-linejoin:round;stroke-width:20px;}.cls-4{fill:#e4002b;}.cls-5{fill:url(#ms-logo-pattern-1_2);}</style><pattern id="ms-logo-pattern-1_2" data-name="ms-logo-pattern-1 2" width="1061" height="1060" patternUnits="userSpaceOnUse" viewBox="0 0 1061 1060"><rect class="cls-1" width="1061" height="1060"/><path class="cls-2" d="M435.4,403.56a10.39,10.39,0,0,1,0-20.77,57.11,57.11,0,0,0,0-114.22h-135a10.39,10.39,0,1,1,0-20.77h135a77.88,77.88,0,0,1,0,155.76Z"/><path class="cls-2" d="M226.16,268.57h-135a77.89,77.89,0,0,1,0-155.77,10.39,10.39,0,1,1,0,20.77,57.12,57.12,0,0,0,0,114.23h135a10.39,10.39,0,0,1,0,20.77Z"/><path class="cls-3" d="M264.06,431.08"/><path class="cls-4" d="M330.52,8.44A77.93,77.93,0,0,0,263,47.54,77.86,77.86,0,0,0,117.64,86.32v135a10.39,10.39,0,0,0,20.77,0v-135a57.12,57.12,0,0,1,114.23,0,10.39,10.39,0,1,0,20.77,0,57.11,57.11,0,0,1,114.22,0v135a10.39,10.39,0,0,0,20.77,0v-135A78,78,0,0,0,330.52,8.44Z"/><path class="cls-4" d="M263,365.66a10.39,10.39,0,0,1-10.38-10.39V162.13a10.39,10.39,0,1,1,20.77,0V355.27A10.39,10.39,0,0,1,263,365.66Z"/><path class="cls-2" d="M621.68,133.57H435.92a10.39,10.39,0,0,1,0-20.77H621.68a10.39,10.39,0,1,1,0,20.77Z"/><path class="cls-2" d="M362.19,133.05H165.93a10.39,10.39,0,0,1,0-20.77H362.19a10.39,10.39,0,1,1,0,20.77Z"/><path class="cls-2" d="M361.67,403.56H165.41a10.39,10.39,0,0,1,0-20.77H361.67a10.39,10.39,0,1,1,0,20.77Z"/><path class="cls-2" d="M965.73,933.88a10.38,10.38,0,1,1,0-20.76,57.12,57.12,0,0,0,0-114.23h-135a10.39,10.39,0,0,1,0-20.77h135a77.88,77.88,0,0,1,0,155.76Z"/><path class="cls-2" d="M756.48,798.89h-135a77.88,77.88,0,0,1,0-155.76,10.38,10.38,0,0,1,0,20.76,57.12,57.12,0,0,0,0,114.23h135a10.39,10.39,0,1,1,0,20.77Z"/><path class="cls-3" d="M794.39,961.4"/><path class="cls-4" d="M860.85,538.77a77.88,77.88,0,0,0-67.5,39.1A77.86,77.86,0,0,0,648,616.65v135a10.39,10.39,0,1,0,20.77,0v-135a57.11,57.11,0,1,1,114.22,0,10.39,10.39,0,0,0,20.77,0,57.12,57.12,0,1,1,114.23,0v135a10.39,10.39,0,1,0,20.77,0v-135A78,78,0,0,0,860.85,538.77Z"/><path class="cls-4" d="M793.35,896A10.39,10.39,0,0,1,783,885.6V692.45a10.39,10.39,0,0,1,20.77,0V885.6A10.38,10.38,0,0,1,793.35,896Z"/><path class="cls-4" d="M928.86,1082.56a10.38,10.38,0,0,1-10.38-10.38V826.41a10.39,10.39,0,1,1,20.77,0v245.77A10.39,10.39,0,0,1,928.86,1082.56Z"/><path class="cls-4" d="M793.35,1082.56A10.39,10.39,0,0,1,783,1072.18V961.4a10.39,10.39,0,0,1,20.77,0v110.78A10.38,10.38,0,0,1,793.35,1082.56Z"/><path class="cls-4" d="M658.87,1082.56a10.38,10.38,0,0,1-10.38-10.38V826.41a10.39,10.39,0,1,1,20.77,0v245.77A10.39,10.39,0,0,1,658.87,1082.56Z"/><path class="cls-2" d="M892.52,663.38H696.26a10.39,10.39,0,1,1,0-20.77H892.52a10.39,10.39,0,0,1,0,20.77Z"/><path class="cls-2" d="M892,933.88H695.74a10.38,10.38,0,1,1,0-20.76H892a10.38,10.38,0,0,1,0,20.76Z"/><path class="cls-2" d="M965.4,113.32a10.39,10.39,0,0,0,0,20.77,57.12,57.12,0,0,1,0,114.23h-135a10.38,10.38,0,1,0,0,20.76h135a77.88,77.88,0,0,0,0-155.76Z"/><path class="cls-2" d="M756.16,248.32h-135a77.88,77.88,0,0,0,0,155.76,10.39,10.39,0,1,0,0-20.77,57.12,57.12,0,0,1,0-114.23h135a10.38,10.38,0,0,0,0-20.76Z"/><path class="cls-3" d="M794.06,85.8"/><path class="cls-4" d="M928,285.18a10.39,10.39,0,0,0-10.39,10.38v135a57.11,57.11,0,0,1-114.22,0,10.39,10.39,0,1,0-20.77,0,57.12,57.12,0,0,1-114.23,0v-135a10.39,10.39,0,0,0-20.77,0v135A77.86,77.86,0,0,0,793,469.34,77.86,77.86,0,0,0,938.4,430.56v-135A10.38,10.38,0,0,0,928,285.18Z"/><path class="cls-4" d="M793,151.22a10.39,10.39,0,0,0-10.38,10.39V354.75a10.39,10.39,0,1,0,20.77,0V161.61A10.39,10.39,0,0,0,793,151.22Z"/><path class="cls-4" d="M928.54,8.44a10.39,10.39,0,0,0-10.39,10.38v202a10.39,10.39,0,0,0,20.77,0v-202A10.38,10.38,0,0,0,928.54,8.44Z"/><path class="cls-4" d="M793,8.44a10.38,10.38,0,0,0-10.38,10.38v67a10.39,10.39,0,1,0,20.77,0v-67A10.39,10.39,0,0,0,793,8.44Z"/><path class="cls-4" d="M658.55,8.44a10.39,10.39,0,0,0-10.39,10.38v202a10.39,10.39,0,0,0,20.77,0v-202A10.38,10.38,0,0,0,658.55,8.44Z"/><path class="cls-2" d="M892.19,383.83H695.93a10.39,10.39,0,0,0,0,20.77H892.19a10.39,10.39,0,1,0,0-20.77Z"/><path class="cls-2" d="M891.67,113.32H695.41a10.39,10.39,0,0,0,0,20.77H891.67a10.39,10.39,0,1,0,0-20.77Z"/><path class="cls-2" d="M435.27,643.45a10.39,10.39,0,0,0,0,20.77,57.12,57.12,0,0,1,0,114.23h-135a10.38,10.38,0,1,0,0,20.76h135a77.88,77.88,0,1,0,0-155.76Z"/><path class="cls-2" d="M226,778.45H91a77.88,77.88,0,0,0,0,155.76,10.39,10.39,0,1,0,0-20.77,57.12,57.12,0,0,1,0-114.23H226a10.38,10.38,0,1,0,0-20.76Z"/><path class="cls-3" d="M263.93,615.93"/><path class="cls-4" d="M397.89,815.31a10.39,10.39,0,0,0-10.39,10.38v135a57.11,57.11,0,0,1-114.22,0,10.39,10.39,0,1,0-20.77,0,57.12,57.12,0,0,1-114.23,0v-135a10.39,10.39,0,0,0-20.77,0v135a77.86,77.86,0,0,0,145.38,38.78,77.86,77.86,0,0,0,145.38-38.78v-135A10.38,10.38,0,0,0,397.89,815.31Z"/><path class="cls-4" d="M262.89,681.35a10.39,10.39,0,0,0-10.38,10.39V884.88a10.39,10.39,0,1,0,20.77,0V691.74A10.39,10.39,0,0,0,262.89,681.35Z"/><path class="cls-4" d="M408.92,296.08a10.39,10.39,0,0,0-20.77,0v195a11.45,11.45,0,0,0-.13,1.56V750.93a10.39,10.39,0,0,0,20.77,0V499.62a10.05,10.05,0,0,0,.13-1.56Z"/><path class="cls-4" d="M263,420.69a10.39,10.39,0,0,0-10.38,10.39v60a10.05,10.05,0,0,0-.13,1.56V615.93a10.39,10.39,0,1,0,20.77,0V499.62a11.45,11.45,0,0,0,.13-1.56v-67A10.39,10.39,0,0,0,263,420.69Z"/><path class="cls-4" d="M128.55,285.7a10.39,10.39,0,0,0-10.39,10.38v195a11.45,11.45,0,0,0-.13,1.56V750.93a10.39,10.39,0,0,0,20.77,0V499.62a10.05,10.05,0,0,0,.13-1.56v-202A10.38,10.38,0,0,0,128.55,285.7Z"/><path class="cls-2" d="M622,913.44H435.79a10.39,10.39,0,0,0,0,20.77H622a10.39,10.39,0,0,0,0-20.77Z"/><path class="cls-2" d="M1152.46,643.13H966.24a10.38,10.38,0,0,0,0,20.76h186.22a10.38,10.38,0,1,0,0-20.76Z"/><path class="cls-2" d="M1152.46,383.83H966.24a10.39,10.39,0,0,0,0,20.77h186.22a10.39,10.39,0,1,0,0-20.77Z"/><path class="cls-2" d="M362.06,914H165.8a10.39,10.39,0,0,0,0,20.77H362.06a10.39,10.39,0,1,0,0-20.77Z"/><path class="cls-2" d="M361.54,643.45H165.28a10.39,10.39,0,0,0,0,20.77H361.54a10.39,10.39,0,1,0,0-20.77Z"/><path class="cls-2" d="M91.46,643.13H-94.76a10.38,10.38,0,0,0-10.38,10.38,10.38,10.38,0,0,0,10.38,10.38H91.46a10.38,10.38,0,1,0,0-20.76Z"/><path class="cls-2" d="M91.46,383.83H-94.76a10.38,10.38,0,0,0-10.38,10.38A10.39,10.39,0,0,0-94.76,404.6H91.46a10.39,10.39,0,1,0,0-20.77Z"/><path class="cls-4" d="M928.86,22.56a10.38,10.38,0,0,1-10.38-10.38V-233.59A10.39,10.39,0,0,1,928.86-244a10.39,10.39,0,0,1,10.39,10.39V12.18A10.39,10.39,0,0,1,928.86,22.56Z"/><path class="cls-4" d="M793.35,22.56A10.39,10.39,0,0,1,783,12.18V-98.6A10.39,10.39,0,0,1,793.35-109,10.38,10.38,0,0,1,803.73-98.6V12.18A10.38,10.38,0,0,1,793.35,22.56Z"/><path class="cls-4" d="M658.87,22.56a10.38,10.38,0,0,1-10.38-10.38V-233.59A10.39,10.39,0,0,1,658.87-244a10.39,10.39,0,0,1,10.39,10.39V12.18A10.39,10.39,0,0,1,658.87,22.56Z"/></pattern></defs><title>Mike Sonnenberg Logo Pattern</title><g id="Layer_9" data-name="Layer 9"><rect class="cls-5" x="-1145.5" y="-1074" width="10000" height="10000"/></g></svg>