<svg version="1.1" id="Layer_1" xmlns="http://www.w3.org/2000/svg" x="0" y="0" viewBox="0 0 300 300" xml:space="preserve"><style type="text/css">.st0{fill:#3f154f}.st2{fill:#e4002b}</style><path class="st0" d="M252.4861 236.8771c-4.0813 0-7.3899-3.3086-7.3899-7.3899s3.3086-7.3899 7.3899-7.3899c17.9974 0 32.6391-14.642 32.6391-32.6391s-14.6417-32.6391-32.6391-32.6391h-80.0582c-4.0813 0-7.3899-3.3086-7.3899-7.3899 0-4.0814 3.3086-7.3899 7.3899-7.3899h80.0582c26.1468 0 47.4189 21.2721 47.4189 47.4189s-21.2722 47.4189-47.4189 47.4189zM128.396 156.8192H48.3379c-26.1469 0-47.419-21.272-47.419-47.4189s21.2721-47.419 47.419-47.419c4.0814 0 7.3899 3.3085 7.3899 7.3899s-3.3085 7.3901-7.3899 7.3901c-17.9972 0-32.6391 14.6417-32.6391 32.6391 0 17.9972 14.6418 32.6391 32.6391 32.6391h80.0581c4.0814 0 7.3899 3.3085 7.3899 7.3899 0 4.0811-3.3085 7.3898-7.3899 7.3898z"/><path class="st2" d="M190.2871.0902c-16.8117 0-31.6065 8.795-40.0291 22.0246C141.8355 8.8853 127.0406.0902 110.229.0902c-26.1469 0-47.4189 21.2721-47.4189 47.419v80.0581c0 4.0814 3.3085 7.3899 7.3899 7.3899s7.3899-3.3085 7.3899-7.3899V47.5092c0-17.9972 14.6418-32.6392 32.6391-32.6392s32.6391 14.642 32.6391 32.6392c0 4.0814 3.3085 7.3899 7.3899 7.3899s7.3901-3.3085 7.3901-7.3899c0-17.9972 14.6417-32.6392 32.6391-32.6392 17.9971 0 32.6391 14.642 32.6391 32.6392v80.0581c0 4.0814 3.3086 7.3899 7.3899 7.3899s7.3899-3.3085 7.3899-7.3899V47.5092c-.0001-26.1469-21.2723-47.419-47.419-47.419z"/><path class="st2" d="M150.258 214.3993c-4.0814 0-7.39-3.3086-7.39-7.3899V91.2332c0-4.0814 3.3086-7.3899 7.39-7.3899 4.0814 0 7.3901 3.3085 7.3901 7.3899v115.7763c-.0001 4.0812-3.3087 7.3898-7.3901 7.3898zM230.6241 300c-4.0813 0-7.3899-3.3087-7.3899-7.3899v-120.703c0-4.0813 3.3086-7.3899 7.3899-7.3899s7.3899 3.3086 7.3899 7.3899v120.703c0 4.0812-3.3086 7.3899-7.3899 7.3899zM150.258 299.692c-4.0814 0-7.3899-3.3087-7.3899-7.3899v-40.3367c0-4.0813 3.3085-7.3899 7.3899-7.3899s7.3901 3.3086 7.3901 7.3899v40.3367c-.0001 4.0812-3.3087 7.3899-7.3901 7.3899zM70.5079 300c-4.0814 0-7.3901-3.3087-7.3901-7.3899v-120.703c0-4.0813 3.3086-7.3899 7.3901-7.3899 4.0814 0 7.3901 3.3086 7.3901 7.3899v120.703c0 4.0812-3.3086 7.3899-7.3901 7.3899z"/><path class="st0" d="M292.515 76.7611h-39.7212c-4.0813 0-7.3899-3.3085-7.3899-7.3899s3.3086-7.3899 7.3899-7.3899h39.7212c4.0813 0 7.3899 3.3085 7.3899 7.3899.0001 4.0814-3.3086 7.3899-7.3899 7.3899zM207.8383 76.4533H92.6778c-4.0814 0-7.3901-3.3086-7.3901-7.3901 0-4.0814 3.3086-7.3901 7.3901-7.3901h115.1605c4.0813 0 7.3899 3.3086 7.3899 7.3901s-3.3087 7.3901-7.3899 7.3901zM208.7619 236.8771H92.3699c-4.0814 0-7.3899-3.3086-7.3899-7.3899s3.3085-7.3899 7.3899-7.3899h116.3919c4.0813 0 7.3899 3.3086 7.3899 7.3899s-3.3086 7.3899-7.3898 7.3899zM48.6458 236.8771H8.6169c-4.0814 0-7.3901-3.3086-7.3901-7.3899s3.3086-7.3899 7.3901-7.3899h40.029c4.0814 0 7.3901 3.3086 7.3901 7.3899s-3.3087 7.3899-7.3902 7.3899z"/></svg>